<?xml version="1.0" standalone="no"?>
<!DOCTYPE svg PUBLIC "-//W3C//DTD SVG 1.1//EN" "http://www.w3.org/Graphics/SVG/1.1/DTD/svg11.dtd" >
<svg xmlns="http://www.w3.org/2000/svg">
<metadata>Generated by IcoMoon</metadata>
<defs>
<font id="icomoon" horiz-adv-x="1024">
<font-face units-per-em="1024" ascent="960" descent="-64" />
<missing-glyph horiz-adv-x="1024" />
<glyph unicode="&#x20;" horiz-adv-x="512" d="" />
<glyph unicode="&#xe900;" glyph-name="chat-setting" d="M944.258 800.525c0 88.131-71.343 159.474-159.472 159.474h-545.571c-88.13 0-159.474-71.343-159.474-159.474v-545.571c0-71.343 46.163-130.095 104.917-151.079v-125.901c0-33.574 37.77-54.558 67.147-33.574l201.44 146.884h331.541c88.129 0 159.472 71.343 159.472 159.475v549.766zM772.195 515.151c0-20.984-16.789-37.772-37.772-37.772h-4.195c-16.789 0-29.376-8.392-33.574-20.984s-4.198-29.376 8.392-41.967l4.198-4.195c12.59-12.59 12.59-37.772 0-50.363l-25.182-25.178c-12.59-12.59-37.769-12.59-50.36 0l-4.198 4.195c-8.392 8.396-25.178 12.59-37.769 8.396h-4.198c-12.587-4.198-20.984-16.789-20.984-33.574v-4.198c0-20.984-16.786-33.574-33.571-33.574h-33.574c-20.984 0-37.772 16.789-37.772 33.574v4.198c0 12.59-8.392 29.376-20.984 33.574h-4.195c-12.59 4.195-29.376 4.195-37.772-8.396l-4.195-4.195c-12.59-12.59-37.771-12.59-50.361 0l-25.181 25.178c-12.59 12.59-12.59 37.772 0 50.363l4.197 4.195c8.393 12.59 12.59 25.182 8.393 41.967-4.197 12.59-20.984 20.984-33.574 20.984h-8.393c-20.984 0-37.77 16.789-37.77 37.772v33.571c0 20.984 16.787 37.772 37.77 37.772h4.197c16.787 0 29.377 8.392 33.573 25.178 4.197 12.59 4.197 29.379-8.393 41.967l-4.196-4.195c-12.59 12.589-12.59 37.769 0 50.36l25.18 25.18c12.59 12.59 37.77 12.59 50.361 0l4.197-4.197c8.392-8.393 25.178-12.59 37.769-8.393h4.198c12.59 8.393 20.984 25.18 20.984 37.77v4.197c0 20.984 16.786 37.77 37.769 37.77h33.574c20.984 0 33.574-16.787 33.574-37.77v-4.197c0-12.59 8.392-29.377 20.984-33.573h4.195c12.59-4.197 29.379-4.197 37.772 8.393l4.195 4.197c12.59 12.59 37.772 12.59 50.363 0l25.178-25.18c12.59-12.59 12.59-37.77 0-50.362l-4.195-4.195c-12.59-12.59-12.59-25.182-8.396-41.967 4.198-12.59 20.984-25.182 33.574-25.182h4.198c20.984 0 37.769-16.786 37.769-37.769v-29.376h4.198zM511.912 632.656c-54.558 0-100.722-46.165-100.722-100.722 0-54.555 46.165-100.719 100.722-100.719 54.555 0 100.719 46.165 100.719 100.719 0 54.558-46.165 100.722-100.719 100.722z" />
<glyph unicode="&#xe901;" glyph-name="down" d="M513.127 149.333c-9.003 0-17.253 1.544-24.755 4.63s-15.004 8.49-22.506 16.207l-445.61 458.42c-13.503 13.891-20.255 30.098-20.255 48.619 0 18.523 6.751 34.729 20.255 48.621s29.632 20.837 48.387 20.837c18.755 0 34.884-6.946 48.387-20.837l396.097-407.484 396.092 407.484c13.508 13.891 29.261 20.837 47.266 20.837s33.758-6.946 47.257-20.837c13.508-13.891 20.258-30.484 20.258-49.777s-6.75-35.886-20.258-49.777l-443.355-456.105c-7.501-7.717-15.003-13.12-22.505-16.207s-15.753-4.63-24.756-4.63z" />
<glyph unicode="&#xe902;" glyph-name="arrow-right" d="M621.434 870.395c4.341-3.346 7.96-7.54 10.637-12.327s4.354-10.069 4.931-15.526c22.503-92.915 89.868-215.314 211.090-280.162 33.472-17.658 69.177-30.721 106.135-38.839 21.855-5.812 44.189-9.632 66.73-11.411v-1.275h3.044v-127.997h-3.044v-1.417c-22.71-1.842-45.213-5.67-67.157-11.482-36.774-8.195-72.324-21.205-105.708-38.697-123.273-65.629-189.577-183.989-211.161-272.574-4.175-17.3-10.189-27.929-18.61-32.609-8.35-4.681-24.697-3.538-42.315 1.069l-91.78 20.764c18.399 125.73 72.178 217.155 164.594 279.099 20.946 13.466 43.165 25.161 66.517 34.87l50.023 21.546h-765.358v126.863h765.358l-50.094 21.616c-23.281 9.497-45.5 20.979-66.517 34.303-92.344 61.659-146.124 153.086-164.523 279.029l94.113 21.403c18.824 5.245 33.684 9.001 43.095 3.757z" />
<glyph unicode="&#xe903;" glyph-name="arrow-up" d="M1024 897.479v-490.296c0-33.83-27.529-61.289-61.445-61.289s-61.438 27.459-61.438 61.289v342.306l-796.274-794.28c-11.961-11.93-27.692-17.975-43.421-17.975s-31.46 5.965-43.42 17.975c-24.003 23.946-24.003 62.761 0 86.707l796.274 794.276h-343.246c-33.916 0-61.441 27.457-61.441 61.287s27.526 61.287 61.441 61.287h491.526c8.029 0 15.984-1.643 23.523-4.748 14.993-6.21 26.953-18.141 33.261-33.178 3.032-7.436 4.661-15.354 4.661-23.361z" />
<glyph unicode="&#xe904;" glyph-name="arrow-down" d="M1024-1.48v490.298c0 33.83-27.523 61.287-61.439 61.287s-61.445-27.456-61.445-61.287v-342.306l-796.272 794.278c-11.96 11.93-27.692 17.975-43.421 17.975s-31.461-5.963-43.421-17.975c-24.003-23.943-24.003-62.761 0-86.704l796.271-794.276h-343.243c-33.915 0-61.441-27.461-61.441-61.291s27.526-61.286 61.441-61.286h491.53c8.029 0 15.984 1.642 23.517 4.746 14.992 6.211 26.953 18.146 33.26 33.181 3.032 7.435 4.66 15.353 4.66 23.357z" />
<glyph unicode="&#xe905;" glyph-name="prev" d="M735.996-63.999c-16.383 0-32.769 6.272-45.249 18.752l-447.991 447.991c-25.024 25.024-25.024 65.474 0 90.498l447.991 447.991c25.024 25.024 65.474 25.024 90.498 0s25.024-65.475 0-90.499l-402.742-402.742 402.742-402.739c25.024-25.024 25.024-65.477 0-90.501-12.48-12.48-28.865-18.752-45.249-18.752z" />
<glyph unicode="&#xe906;" glyph-name="next" d="M288.005-63.999c16.383 0 32.769 6.272 45.249 18.752l447.991 447.991c25.022 25.024 25.022 65.474 0 90.498l-447.991 447.991c-25.024 25.024-65.474 25.024-90.498 0s-25.024-65.475 0-90.499l402.742-402.742-402.742-402.739c-25.024-25.024-25.024-65.477 0-90.501 12.48-12.48 28.865-18.752 45.249-18.752z" />
<glyph unicode="&#xe907;" glyph-name="support" d="M947.767 52.688c-27.655 81.681-62.079 185.31-195.762 185.31h-72.387c21.613 17.292 41.223 36.963 56.681 60h15.705c82.705 0 149.999 67.297 149.999 150.003v119.999c0 215.040-174.961 392-390.001 392-219.939 0-392.969-182.828-389.969-397.069-0.036-66.062-0.030-42.042-0.030-114.931 0-82.705 67.294-150.003 150-150.003h15.706c15.458-23.036 35.068-42.708 56.683-60h-72.388c-133.682 0-168.106-103.629-195.762-185.279-19.556-57.716 25.77-116.719 86.135-116.719h699.258c60.57 0 105.625 59.214 86.133 116.688zM245.037 597.999h-33.033c-9.628 0-18.732-1.918-27.436-4.731 13.788 180.466 161.722 306.732 327.435 306.732 173.571 0 315.945-136.776 328.742-307.135-9.080 3.089-18.633 5.134-28.74 5.134h-33.031c-15.149 134.63-128.356 242.001-266.971 242.001-138.612 0-251.82-107.37-266.967-242.001zM512.004 16.009l-120.010 161.99h240.024l-120.012-161.99zM512.004 237.998c-115.78 0-209.998 94.218-209.998 210.002v30h90c49.24 0 92.637 24.17 119.999 60.924 27.365-36.755 70.762-60.924 120.003-60.924h89.999v-30c0-32.331-7.954-62.614-21.063-89.999h-128.935c-16.582 0-30-13.418-30-30s13.418-29.801 30-29.801h86.5c-37.878-36.997-89.504-60.201-146.504-60.201z" />
<glyph unicode="&#xe908;" glyph-name="ex" d="M38.89 850.284l367.12-443.772-369.438-360.796h83.146l323.433 315.886 261.34-315.886h282.936l-387.765 468.726 343.858 335.843h-83.141l-297.865-290.926-240.677 290.926h-282.946zM161.162 794.917h129.984l573.994-693.824h-129.98l-573.998 693.824z" />
<glyph unicode="&#xe909;" glyph-name="facebook" d="M392.938-25.149l-1.374 414.008h-180.659v177.425h180.659v118.289c0 159.643 100.651 236.577 245.649 236.577 69.461 0 129.152-5.079 146.551-7.349v-166.832l-100.565-0.043c-78.857 0-94.131-36.804-94.131-90.812v-89.83h224.026l-60.22-177.425h-163.806v-414.008h-196.13z" />
<glyph unicode="&#xe90a;" glyph-name="github" d="M512 927.577c-264.628 0-479.578-214.95-479.578-479.578 0-264.626 214.95-479.576 479.578-479.576s479.578 214.95 479.578 479.576c0 264.628-214.95 479.578-479.578 479.578zM621.687 57.453c0 20.166 0 62.464 0 113.126 0 41.318-14.264 68.371-30.003 82.144 98.377 10.822 202.159 48.205 202.159 218.394 0 48.204-17.216 87.554-45.741 118.542 4.915 11.313 20.16 56.564-3.936 117.557 0 0-37.382 11.805-121.987-45.744-35.415 9.837-73.29 14.756-110.672 15.248-37.875-0.492-75.749-5.411-110.672-15.248-84.602 57.549-121.984 45.744-121.984 45.744-24.102-60.993-8.855-106.244-4.428-117.557-28.037-30.988-45.252-70.339-45.252-118.542 0-169.696 103.293-207.571 201.668-218.886-12.789-10.822-24.099-30.496-28.035-59.021-25.578-11.315-89.524-30.989-128.874 36.89 0 0-23.608 42.298-67.876 45.248 0 0-43.288 0.493-2.954-26.56 0 0 29.021-13.773 49.188-64.928 0 0 25.579-79.187 149.039-52.134 0-30.496 0-58.534 0-74.272-170.68 48.198-296.109 204.614-296.109 390.546 0 223.803 181.994 405.796 405.796 405.796s405.798-181.994 405.798-405.796c0-185.932-125.427-342.348-296.108-390.546h0.982z" />
<glyph unicode="&#xe90b;" glyph-name="linkedin" d="M76.11-3.761h187.363v602.855h-187.363v-602.855zM60.11 791.050c0-59.293 49.306-108.71 108.473-108.71 61.14 0 108.474 47.437 108.474 108.71 0 59.297-49.306 108.71-108.474 108.71-59.167 0-108.473-49.413-108.473-108.71zM776.535-3.591h187.355v330.084c0 162.074-35.499 286.601-224.835 286.601-90.718 0-151.859-49.417-177.502-96.853h-1.971v83.021h-179.473v-602.852h187.366v298.459c0 77.082 15.778 154.172 112.418 154.172 94.669 0 96.641-90.923 96.641-160.102v-292.529z" />
<glyph unicode="&#xe90c;" glyph-name="youtube" d="M973.321 631.523c-11.827 74.556-47.309 126.176-130.118 137.646-130.116 22.94-331.204 22.941-331.204 22.941s-201.088-0.001-331.204-22.941c-82.799-11.471-124.2-63.090-130.114-137.646-11.829-74.556-11.829-183.518-11.829-183.518s0-108.971 11.829-183.526c11.829-74.556 47.315-126.174 130.114-137.643 130.116-22.946 331.204-22.946 331.204-22.946s201.088 0 331.204 22.946c82.809 17.203 118.291 63.087 130.118 137.643s11.827 183.526 11.827 183.526c0 0 0 108.962-11.827 183.518zM393.709 275.948v344.107l295.723-172.049-295.723-172.058z" />
<glyph unicode="&#xe90d;" glyph-name="bank" d="M950.857 45.775h-12.19v60.952c0 52.663-32.719 85.333-85.333 85.333h-12.19v268.19h12.19c52.614 0 85.333 32.672 85.333 85.335v124.786c0 32.524-18.091 61.779-47.202 76.31l-330.411 165.202c-30.769 15.311-67.437 15.311-98.108 0l-330.411-165.202c-29.111-14.531-47.202-43.786-47.202-76.31v-124.786c0-52.663 32.719-85.335 85.333-85.335h12.19v-268.19h-12.19c-52.614 0-85.333-32.67-85.333-85.333v-60.952h-12.19c-20.187 0-36.571-16.384-36.571-36.571s16.384-36.571 36.571-36.571h877.714c20.187 0 36.571 16.384 36.571 36.571s-16.384 36.571-36.571 36.571zM767.999 192.061h-121.905v268.19h121.905v-268.19zM451.047 192.061v268.19h121.905v-268.19h-121.905zM160.136 534.717c-0.049 0-0.049 0 0 0-0.244 0.39-1.661 3.262-1.661 10.869v124.786c0 4.632 2.581 8.82 6.726 10.917l330.411 165.202c10.384 5.169 22.39 5.169 32.776 0l330.411-165.202c4.145-2.048 6.724-6.236 6.724-10.917v-124.786c0-7.607-1.414-10.437-1.317-10.583-0.39-0.195-3.267-1.607-10.874-1.607h-682.667c-7.363 0-10.286 1.321-10.53 1.321zM255.999 460.251h121.905v-268.19h-121.905v268.19zM158.476 106.727c0 7.607 1.413 10.44 1.316 10.586 0.39 0.195 3.268 1.604 10.875 1.604h682.667c8.875 0 10.63-1.321 10.581-1.321 0.195-0.439 1.609-3.262 1.609-10.869v-60.952h-707.048v60.952zM451.047 691.872c0 33.646 27.307 60.952 60.952 60.952s60.952-27.307 60.952-60.952c0-33.646-27.307-60.952-60.952-60.952s-60.952 27.307-60.952 60.952z" />
<glyph unicode="&#xe90e;" glyph-name="bed" d="M819.2 691.202h-307.2c-21.197 0-38.4-17.203-38.4-38.4v-320h-384v422.4c0 21.197-17.203 38.4-38.4 38.4s-38.4-17.203-38.4-38.4v-614.403c0-21.197 17.203-38.4 38.4-38.4s38.4 17.203 38.4 38.4v115.2h844.8v-115.2c0-21.197 17.203-38.4 38.4-38.4s38.4 17.203 38.4 38.4v358.403c0 123.802-68.198 192-192 192zM550.4 332.802v281.6h268.8c80.742 0 115.2-34.458 115.2-115.2v-166.4h-384zM281.6 409.602c77.67 0 140.8 63.181 140.8 140.8s-63.13 140.8-140.8 140.8c-77.67 0-140.8-63.181-140.8-140.8s63.13-140.8 140.8-140.8zM281.6 614.402c35.277 0 64-28.723 64-64s-28.723-64-64-64c-35.277 0-64 28.723-64 64s28.723 64 64 64z" />
<glyph unicode="&#xe90f;" glyph-name="book-open" d="M974.714 848.298c-0.051 0-0.051-0.001-0.102 0.050-87.091 41.318-183.7 55.809-287.176 43.163-74.445-9.165-137.421-51.709-175.36-111.306-37.99 59.546-100.917 102.141-175.413 111.306-103.578 12.646-200.034-1.844-287.125-43.163 0 0 0.001 0-0.050 0-22.221-10.547-36.613-33.43-36.613-58.313v-665.855c0-20.173 9.211-38.661 25.287-50.796 16.026-12.134 37.233-16.072 56.638-10.491 148.941 42.291 274.683 24.366 395.925-56.376 0.512-0.358 1.125-0.456 1.637-0.763 0.563-0.307 0.973-0.824 1.588-1.132 0.563-0.307 1.224-0.148 1.787-0.456 5.171-2.458 10.655-4.101 16.287-4.101s11.104 1.644 16.275 4.101c0.563 0.256 1.239 0.148 1.802 0.456s1.024 0.773 1.536 1.132c0.512 0.307 1.126 0.404 1.638 0.763 121.088 80.742 246.881 98.668 395.924 56.376 19.354-5.478 40.596-1.644 56.622 10.491 16.077 12.134 25.303 30.674 25.303 50.796v665.855c0.154 24.781-14.193 47.664-36.413 58.263zM242.451 161.602c-49.203 0-100.039-6.856-152.775-20.577v641.279c72.653 32.87 150.431 43.721 237.625 32.969 83.456-10.24 146.375-81.404 146.375-165.475v-544.306c-73.472 37.478-150.124 56.11-231.225 56.11zM934.476 141.025c-139.571 36.301-265.882 24.73-384-35.533v544.306c0 84.122 62.92 155.235 146.324 165.475 21.606 2.662 42.655 3.994 63.186 3.994 62.208 0 119.808-12.233 174.438-36.963v-641.279h0.051z" />
<glyph unicode="&#xe910;" glyph-name="box-check" d="M500.868 86.556v388.808c11.754 2.36 23.334 5.877 34.464 10.73l296.288 131.651c1.558-7.034 3.161-14.070 3.161-21.461v-103.69c0-18.432 14.964-33.39 33.391-33.39 18.432 0 33.391 14.958 33.391 33.39v103.69c0 28.36-7.569 55.385-20.569 79.338-0.089 0.178-0.040 0.356-0.129 0.534-0.178 0.445-0.583 0.712-0.806 1.158-17.274 30.943-43.894 56.498-77.552 71.413l-267.001 118.784c-43.275 19.367-92.783 19.412-135.88 0.045l-267.13-118.829c-33.658-14.959-60.323-40.515-77.598-71.458-0.223-0.445-0.626-0.712-0.804-1.158-0.089-0.178-0.041-0.356-0.13-0.534-13.001-23.953-20.571-50.977-20.571-79.337v-296.381c0-65.848 38.91-125.685 99.103-152.442l267-118.739c21.771-9.795 44.968-14.737 68.12-14.737 18.833 0 37.665 3.25 55.741 9.795 17.363 6.278 26.308 25.422 20.030 42.741-6.233 17.274-25.333 26.179-42.518 20.079zM426.875 806.56c25.824 11.62 55.431 11.576 81.343-0.045l267.13-118.829c7.48-3.339 14.020-7.969 20.342-12.867l-121.451-53.961-323.006 152.042 75.641 33.659zM270.603 737.062l322.963-152.042-85.126-37.844c-26.045-11.353-55.924-11.308-81.701-0.088l-287.473 127.732c6.278 4.897 12.863 9.528 20.342 12.867l110.994 49.375zM159.609 208.456c-36.107 16.028-59.435 51.957-59.435 91.448v296.379c0 7.391 1.605 14.426 3.163 21.461l296.511-131.741c11.086-4.808 22.573-8.325 34.283-10.64v-388.229c-2.449 0.89-4.938 1.425-7.343 2.493l-267.179 118.829zM779.129 436.942c-116.598 0-211.478-94.876-211.478-211.478s94.88-211.478 211.478-211.478c116.602 0 211.478 94.876 211.478 211.478s-94.876 211.478-211.478 211.478zM779.129 80.768c-79.779 0-144.696 64.913-144.696 144.696s64.917 144.696 144.696 144.696c79.783 0 144.696-64.913 144.696-144.696s-64.913-144.696-144.696-144.696zM858.382 286.191c13.045-13.045 13.045-34.193 0-47.238l-74.218-74.218c-6.278-6.233-14.737-9.75-23.597-9.75s-17.368 3.517-23.601 9.795l-37.087 37.087c-13.045 13.045-13.045 34.193 0 47.238 13.045 13 34.197 13.045 47.242 0l13.486-13.49 50.621 50.577c13 13 34.108 13.045 47.153 0z" />
<glyph unicode="&#xe911;" glyph-name="brain" d="M1011.2 447.748c0 73.473-40.289 138.699-103.060 171.313 0.461 5.581 0.66 11.363 0.66 17.2 0 113.715-79.565 167.736-115.814 186.475-21.299 50.739-77.67 124.463-178.586 124.463-39.578 0-76.288-18.585-102.4-46.95-26.112 28.313-62.822 46.95-102.4 46.95-100.966 0-157.288-73.723-178.588-124.463-36.25-18.739-115.812-72.76-115.812-186.475 0-5.888 0.202-11.619 0.663-17.2-62.771-32.614-103.063-97.84-103.063-171.313 0-26.368 11.466-59.448 19.862-80.184-8.909-19.251-19.862-51.354-19.862-92.979 0-104.858 72.758-194.668 172.7-217.912 31.13-69.786 91.748-107.873 172.9-107.873 65.997 0 119.757 27.448 153.6 72.351 33.843-44.902 87.603-72.351 153.6-72.351 81.152 0 141.773 38.088 172.902 107.873 99.942 23.245 172.698 113.055 172.698 217.912 0 41.574-10.952 73.728-19.86 92.979 8.397 20.685 19.86 53.816 19.86 80.184zM358.4 25.599c-55.859 0-91.292 25.247-108.444 77.112-4.659 14.080-16.998 24.259-31.744 26.051-73.318 9.011-128.612 71.685-128.612 145.823 0 42.342 17.306 69.427 17.306 69.427 7.68 11.213 8.909 25.697 3.175 38.036-8.243 17.613-20.431 50.698-20.431 65.7 0 50.484 33.075 96.092 80.537 110.888 19.763 6.195 31.080 26.931 25.55 46.95-2.458 8.858-3.687 19.205-3.687 30.725 0 89.651 79.67 121.035 82.793 122.212 11.315 4.096 20.118 13.518 23.65 25.038 1.075 3.533 27.649 86.887 111.156 86.887 29.594 0 64-27.955 64-64v-202.9c-23.962 20.582-44.796 31.438-46.844 32.462-18.893 9.523-41.731 1.791-51.356-17.050-9.523-18.893-1.947-41.937 16.844-51.562 0.87-0.41 81.356-42.55 81.356-119.35v-100.499c-23.962 20.582-44.796 31.437-46.844 32.461-18.893 9.472-41.731 1.792-51.356-17.050-9.523-18.893-1.947-41.938 16.844-51.564 0.87-0.41 81.356-42.547 81.356-119.347v-51.2c-0.051-55.757-30.309-115.251-115.25-115.251zM916.838 344.375c0.205-0.256 17.562-27.397 17.562-69.791 0-74.086-55.296-136.812-128.614-145.823-14.746-1.843-27.085-11.971-31.744-26.051-17.152-51.866-52.582-77.112-108.442-77.112-84.941 0-115.2 59.494-115.2 115.2v51.2c0 76.339 79.616 118.431 81.306 119.352 18.893 9.523 26.522 32.502 17.050 51.446-9.523 18.944-32.512 26.675-51.507 17.152-2.048-1.024-22.886-11.817-46.848-32.451v100.5c0 76.339 79.616 118.428 81.306 119.35 18.893 9.523 26.522 32.506 17.050 51.45-9.523 18.944-32.512 26.673-51.507 17.15-2.048-1.024-22.886-11.816-46.848-32.45v202.9c0 36.045 34.406 64 64 64 83.507 0 110.080-83.36 111.104-86.688 3.379-11.52 12.242-20.887 23.455-25.187 3.379-1.28 83.041-32.61 83.041-122.312 0-11.52-1.229-21.868-3.686-30.725-5.53-20.019 5.786-40.755 25.549-46.95 47.462-14.797 80.538-60.417 80.538-110.901 0-15.002-12.186-48.072-20.429-65.684-5.632-11.93-4.352-26.465 2.867-37.576z" />
<glyph unicode="&#xe912;" glyph-name="chart-pie" d="M986.597 556.789c-26.429 188.952-176.855 339.388-365.807 365.768-24.088 3.413-48.616-3.95-67.194-20.042-18.725-16.286-29.452-39.742-29.452-64.464v-292.964c0-46.811 38.083-84.942 84.943-84.942h293.010c24.674 0 48.172 10.731 64.41 29.407 16.14 18.578 23.454 43.052 20.090 67.238zM911.314 537.628c-1.365-1.609-4.437-4.292-9.216-4.292h-292.962c-6.534 0-11.8 5.263-11.8 11.797v292.964c0 4.827 2.682 7.897 4.291 9.262 1.317 1.17 3.901 2.929 7.509 2.929 0.488 0 1.024-0.047 1.512-0.096 0.049 0 0.049 0 0.049 0 156.721-21.894 281.502-146.725 303.445-303.494 0.634-4.389-1.463-7.56-2.828-9.071zM806.72 415.966h-290.182c-20.139 0-36.572 16.384-36.572 36.571v290.18c0 25.112-11.166 48.668-30.622 64.613-19.066 15.555-43.691 21.845-67.682 17.018-111.275-22.333-211.188-89.867-274.14-185.196-63.634-96.402-85.432-213.039-61.393-328.361 33.89-162.621 165.937-294.673 328.607-328.611 30.622-6.388 61.342-9.557 91.72-9.557 84.112 0 165.793 24.191 236.644 70.953 95.33 62.952 162.86 162.811 185.193 274.086 4.827 23.893-1.312 48.616-16.964 67.682-15.945 19.456-39.497 30.622-64.61 30.622zM662.823 104.572c-80.018-52.858-177.105-70.944-273.117-50.805-134.632 28.087-243.909 137.357-271.947 271.94-20.041 96.11-2 193.098 50.809 273.165 52.273 79.189 135.17 135.214 227.476 153.744 0.585 0.098 1.072 0.149 1.56 0.149 2.34 0 4.145-1.024 5.315-2.048 1.17-0.926 3.851-3.611 3.851-8v-290.18c0-60.514 49.25-109.714 109.712-109.714h290.187c4.389 0 7.066-2.677 7.992-3.847 1.17-1.463 2.492-3.857 1.858-6.978-18.481-92.258-74.508-175.153-153.698-227.426z" />
<glyph unicode="&#xe913;" glyph-name="chat-settings" d="M102.6-51.174c-23.398 0-46.122 9.216-63.325 26.419-24.269 24.218-32.614 59.392-21.863 91.75l43.050 128.051c5.018 15.718 4.563 31.488-1.325 43.93-30.31 65.178-46.187 137.37-46.187 209.049 0 275.2 223.9 499.15 499.1 499.15 275.253 0 499.15-223.899 499.15-499.15s-223.898-499.148-499.15-499.148c-71.629 0-143.818 15.923-208.637 46.080-12.749 6.093-28.57 6.502-44.8 1.331l-127.437-42.803c-9.472-3.123-19.103-4.659-28.575-4.659zM512 870.375c-232.858 0-422.3-189.441-422.3-422.35 0-60.569 13.466-121.548 38.913-176.332 14.131-29.747 15.973-65.536 4.862-100.506l-43.213-128.563c-2.15-6.4 1.125-10.957 3.275-13.107s6.762-5.427 13.162-3.277l127.9 42.957c35.533 11.315 71.42 9.574 101.475-4.813 54.374-25.293 115.356-38.758 175.925-38.758 232.909 0 422.349 189.44 422.349 422.349s-189.44 422.4-422.349 422.4zM549.586 204.775h-78.186c-25.498 0-46.238 20.634-46.238 46.029 0 10.445-5.888 20.275-15.462 25.6-10.189 5.734-22.775 5.734-32.912 0.051-22.17-12.339-49.573-5.018-62.475 16.589l-39.162 65.638c-6.246 10.547-8.036 23.347-4.913 35.174 3.174 11.878 11.161 22.17 21.913 28.262 9.728 5.478 15.714 15.36 15.663 25.805 0 10.497-5.988 20.325-15.563 25.701-10.906 6.144-18.838 16.437-22.012 28.316-3.174 11.827-1.335 24.679 4.963 35.175l39.112 65.688c12.749 21.35 40.818 28.825 62.475 16.537 10.138-5.683 22.724-5.682 32.912 0.103 9.574 5.376 15.513 15.206 15.513 25.6 0 25.395 20.739 46.028 46.287 46.028h78.025c25.549 0 46.29-20.684 46.29-46.028 0-10.394 5.934-20.224 15.508-25.6 10.138-5.734 22.789-5.785 32.978-0.050l6.861 3.788c18.125 10.189 41.062 3.891 51.712-13.875l46.899-78.747c5.325-8.909 6.764-19.557 4.101-29.541s-9.277-18.535-18.237-23.553l-6.799-3.841c-9.626-5.427-15.575-15.308-15.575-25.753 0-10.496 5.949-20.326 15.575-25.754 10.957-6.144 18.688-16.128 21.914-28.058s1.582-24.371-4.664-35.072l-39.373-66.048c-12.8-21.35-41.011-28.723-62.464-16.538-10.138 5.683-22.738 5.683-32.927-0.102-9.574-5.376-15.508-15.206-15.508-25.6 0.051-25.242-20.731-45.926-46.228-45.926zM497.363 281.575h26.362c7.885 25.702 25.605 48.026 49.976 61.747 24.474 13.824 53.499 17.51 80.174 11.11l12.14 20.378c-18.688 19.558-29.553 45.619-29.553 73.062-0.051 27.494 10.813 53.659 29.553 73.268l-12.088 20.378c-26.829-6.4-55.803-2.766-80.225 11.109-24.371 13.722-42.040 36.044-49.976 61.747h-26.362c-7.885-25.702-25.604-48.025-49.975-61.747-24.474-13.824-53.295-17.458-80.175-11.109l-12.137-20.378c18.688-19.507 29.536-45.518 29.587-72.91 0.102-27.597-10.746-53.811-29.587-73.472l12.137-20.326c26.829 6.451 55.702 2.714 80.175-11.11 24.371-13.722 42.090-36.045 49.975-61.747zM681.677 343.578c0.051-0.051 0.108-0.051 0.21-0.102-0.102 0.051-0.159 0.051-0.21 0.102zM339.15 552.475c0.102-0.051 0.148-0.052 0.2-0.103-0.051 0.051-0.097 0.103-0.2 0.103zM564.173 447.975c0 28.262-22.886 51.2-51.198 51.2h-0.513c-28.262 0-50.95-22.938-50.95-51.2s23.2-51.2 51.463-51.2c28.26 0 51.198 22.938 51.198 51.2z" />
<glyph unicode="&#xe914;" glyph-name="cpu" d="M972.8 332.8h-64v230.4h64c21.197 0 38.4 17.203 38.4 38.4s-17.203 38.4-38.4 38.4h-64v12.8c0 123.802-68.198 192-192 192h-12.8v64c0 21.197-17.203 38.4-38.4 38.4s-38.4-17.203-38.4-38.4v-64h-230.4v64c0 21.197-17.203 38.4-38.4 38.4s-38.4-17.203-38.4-38.4v-64h-12.8c-123.802 0-192-68.198-192-192v-12.8h-64c-21.197 0-38.4-17.203-38.4-38.4s17.203-38.4 38.4-38.4h64v-230.4h-64c-21.197 0-38.4-17.203-38.4-38.4s17.203-38.4 38.4-38.4h64v-12.8c0-123.802 68.198-192 192-192h12.8v-64c0-21.197 17.203-38.4 38.4-38.4s38.4 17.203 38.4 38.4v64h230.4v-64c0-21.197 17.203-38.4 38.4-38.4s38.4 17.203 38.4 38.4v64h12.8c123.802 0 192 68.198 192 192v12.8h64c21.197 0 38.4 17.203 38.4 38.4s-17.203 38.4-38.4 38.4zM832 243.2c0-80.742-34.458-115.2-115.2-115.2h-409.6c-80.742 0-115.2 34.458-115.2 115.2v409.6c0 80.742 34.458 115.2 115.2 115.2h409.6c80.742 0 115.2-34.458 115.2-115.2v-409.6zM614.4 665.6h-204.8c-72.141 0-115.2-43.059-115.2-115.2v-204.8c0-72.141 43.059-115.2 115.2-115.2h204.8c72.141 0 115.2 43.059 115.2 115.2v204.8c0 72.141-43.059 115.2-115.2 115.2zM652.8 345.6c0-30.157-8.243-38.4-38.4-38.4h-204.8c-30.157 0-38.4 8.243-38.4 38.4v204.8c0 30.157 8.243 38.4 38.4 38.4h204.8c30.157 0 38.4-8.243 38.4-38.4v-204.8z" />
<glyph unicode="&#xe915;" glyph-name="database" d="M512.001 923.43c-239.226 0-426.667-101.717-426.667-231.619v-487.621c0-125.562 195.389-231.619 426.667-231.619 231.28 0 426.664 106.057 426.664 231.619v487.621c0 129.902-187.436 231.619-426.664 231.619zM865.522 447.999c0-74.947-145.213-158.476-353.521-158.476-208.311 0-353.524 83.529-353.524 158.476v112.55c76.117-60.952 204.751-100.359 353.524-100.359 148.775 0 277.409 39.407 353.521 100.359v-112.55zM512.001 850.287c208.308 0 353.521-83.529 353.521-158.476s-145.213-158.476-353.521-158.476c-208.311 0-353.524 83.529-353.524 158.476s145.213 158.476 353.524 158.476zM512.001 45.713c-212.504 0-353.524 95.378-353.524 158.476v112.552c76.117-60.952 204.751-100.362 353.524-100.362 148.775 0 277.409 39.409 353.521 100.362v-112.552c0-63.098-141.019-158.476-353.521-158.476z" />
<glyph unicode="&#xe916;" glyph-name="document" d="M601.6 448c0-21.197-17.203-38.4-38.4-38.4h-307.2c-21.197 0-38.4 17.203-38.4 38.4s17.203 38.4 38.4 38.4h307.2c21.197 0 38.4-17.203 38.4-38.4zM256 614.4h153.6c21.197 0 38.4 17.203 38.4 38.4s-17.203 38.4-38.4 38.4h-153.6c-21.197 0-38.4-17.203-38.4-38.4s17.203-38.4 38.4-38.4zM563.2 281.6h-307.2c-21.197 0-38.4-17.203-38.4-38.4s17.203-38.4 38.4-38.4h307.2c21.197 0 38.4 17.203 38.4 38.4s-17.203 38.4-38.4 38.4zM1011.2 473.6v-384c0-77.67-63.13-140.8-140.8-140.8h-665.6c-123.802 0-192 68.198-192 192v614.4c0 123.802 68.198 192 192 192h409.6c123.802 0 192-68.198 192-192v-166.4h89.6c63.488 0 115.2-51.661 115.2-115.2zM745.011 25.6c-9.83 19.2-15.411 40.96-15.411 64v665.6c0 80.742-34.458 115.2-115.2 115.2h-409.6c-80.742 0-115.2-34.458-115.2-115.2v-614.4c0-80.742 34.458-115.2 115.2-115.2h540.211zM934.4 473.6c0 21.197-17.254 38.4-38.4 38.4h-89.6v-422.4c0-35.277 28.723-64 64-64s64 28.723 64 64v384z" />
<glyph unicode="&#xe917;" glyph-name="dollar-square" d="M786.284 923.43h-548.569c-129.707 0-201.143-71.436-201.143-201.143v-548.574c0-129.707 71.436-201.143 201.143-201.143h548.569c129.707 0 201.143 71.436 201.143 201.143v548.574c0 129.707-71.436 201.143-201.143 201.143zM914.284 173.713c0-88.503-39.492-128-128-128h-548.569c-89.722 0-128 38.278-128 128v548.574c0 89.722 38.278 128 128 128h548.569c88.508 0 128-39.497 128-128v-548.574zM560.082 473.745l-78.412 19.458c-12.093 3.023-22.381 9.804-30.134 19.702-7.314 9.265-11.363 21.16-11.363 33.399 0 30.184 24.528 54.708 54.709 54.708h34.133c27.892 0 51.254-20.968 54.423-48.762 2.243-20.090 20.187-34.62 40.424-32.28 20.090 2.243 34.519 20.339 32.276 40.428-6.583 58.612-51.931 103.813-108.69 112.053v19.358c0 20.187-16.384 36.571-36.571 36.571s-36.569-16.384-36.569-36.571v-19.703c-60.709-9.947-107.277-62.317-107.277-125.756 0-28.623 9.606-56.613 26.917-78.458 17.359-22.382 42.131-38.566 69.926-45.588l78.407-19.461c24.43-6.193 41.496-28.038 41.496-53.102 0-14.531-5.7-28.233-16.087-38.619s-24.093-16.087-38.624-16.087h-34.128c-27.893 0-51.251 20.968-54.421 48.762-2.243 20.090-20.479 34.718-40.423 32.28-20.090-2.243-34.523-20.334-32.28-40.424 6.485-57.88 50.759-102.795 106.494-111.816v-19.651c0-20.187 16.382-36.571 36.569-36.571s36.571 16.384 36.571 36.571v19.407c27.063 3.95 52.18 15.95 71.929 35.699 24.186 24.186 37.542 56.271 37.542 90.356 0 58.661-39.736 109.612-96.836 124.094z" />
<glyph unicode="&#xe918;" glyph-name="file-search" d="M923.136 628.736l-307.2 307.2c-7.219 7.219-16.947 11.264-27.136 11.264h-307.2c-123.802 0-192-68.198-192-192v-614.4c0-123.802 68.198-192 192-192h460.8c123.802 0 192 68.198 192 192v460.8c0 10.189-4.045 19.968-11.264 27.136zM627.2 816.077l176.077-176.077h-60.877c-80.742 0-115.2 34.458-115.2 115.2v60.877zM742.4 25.6h-460.8c-80.742 0-115.2 34.458-115.2 115.2v614.4c0 80.742 34.458 115.2 115.2 115.2h268.8v-115.2c0-123.802 68.198-192 192-192h115.2v-422.4c0-80.742-34.458-115.2-115.2-115.2zM638.976 247.296c19.354 29.542 30.874 64.717 30.874 102.554 0 103.526-84.225 187.75-187.7 187.75-103.526 0-187.75-84.225-187.75-187.75 0-103.475 84.223-187.699 187.75-187.699 37.888 0 73.008 11.469 102.55 30.822l79.364-79.309c7.475-7.475 17.306-11.264 27.136-11.264s19.661 3.738 27.136 11.264c15.002 15.002 15.002 39.322 0 54.323l-79.36 79.309zM371.2 349.85c0 61.184 49.766 110.95 110.95 110.95 61.133 0 110.9-49.766 110.9-110.95 0-61.133-49.767-110.899-110.9-110.899-61.184 0-110.95 49.766-110.95 110.899z" />
<glyph unicode="&#xe919;" glyph-name="flask-round" d="M689.86 634.976c-11.947 6.29-19.358 18.532-19.358 31.893v183.441h36.571c20.187 0 36.571 16.384 36.571 36.571s-16.384 36.571-36.571 36.571h-390.095c-20.187 0-36.571-16.384-36.571-36.571s16.384-36.571 36.571-36.571h36.571v-183.441c0-13.361-7.409-25.601-19.405-31.941-123.368-65.39-200.024-193.051-200.024-333.193 0-104.497 41.643-201.577 117.077-273.403l7.268-7.070c31.988-31.11 53.975-48.713 134.53-48.713h238.004c80.506 0 102.551 17.603 134.539 48.713l7.217 7.022c75.532 71.826 117.126 168.96 117.126 273.408 0.049 140.239-76.556 267.894-200.021 333.284zM368.371 570.321c35.986 19.066 58.321 56.026 58.321 96.548v183.441h170.667v-183.441c0-40.521 22.328-77.53 58.266-96.548 85.723-45.446 143.262-128.346 157.457-222.798-38.917-19.358-145.847-58.080-284.77 11.308-132.242 66.17-242.834 50.43-308.809 28.194 22.577 77.726 75.336 144.335 148.869 183.296zM722.336 81.288l-7.802-7.563c-22.138-21.504-28.823-27.989-83.534-27.989h-238.004c-54.711 0-61.392 6.485-83.53 27.989l-7.845 7.563c-60.855 57.929-94.405 136.138-94.405 220.448 0 0.39 0.096 0.78 0.096 1.122 35.352 18.53 144.626 62.323 288.327-9.455 70.949-35.499 135.659-47.401 190.613-47.401 53.248 0 97.036 11.22 128.683 23.020-7.461-71.631-39.643-137.362-92.599-187.733z" />
<glyph unicode="&#xe91a;" glyph-name="folder-settings" d="M683.112 514.919c-10.701 17.869-33.536 24.012-51.763 13.875l-5.934-3.328c-7.475-4.198-16.64-4.147-24.115 0.052-6.912 3.84-11.162 10.854-11.162 18.227 0 24.883-20.275 45.108-45.312 45.108h-68.3c-24.986 0-45.313-20.225-45.313-45.108 0-7.373-4.252-14.387-11.113-18.227-7.475-4.25-16.751-4.148-24.175-0.052-21.197 11.93-48.737 4.66-61.025-16.23l-34.4-57.703c-5.222-8.909-7.376-24.474-4.663-34.458 3.123-11.622 10.953-21.658 21.5-27.546 6.861-3.891 11.162-10.906 11.213-18.278 0-7.475-4.297-14.49-11.363-18.483-10.547-5.939-18.328-16.077-21.4-27.75-2.662-9.933-0.411-25.498 4.862-34.355l34.3-57.6c12.595-20.992 39.38-28.109 61.038-16.128 7.424 4.147 16.588 4.198 24.012 0 0.051 0 0.050 0 0.050 0 6.861-3.84 11.112-10.803 11.112-18.227 0-24.883 20.263-45.107 45.3-45.107h68.414c24.934 0 45.261 20.224 45.261 45.107 0 7.373 4.25 14.336 11.162 18.227 7.475 4.198 16.64 4.198 24.115 0.051 21.504-12.032 48.22-5.018 61.071 16.23l34.104 57.293c5.376 8.909 7.634 24.525 5.023 34.611-3.072 11.725-10.916 21.811-21.514 27.75-0.205 0.102-0.404 0.205-0.609 0.307-6.554 3.942-10.65 10.803-10.65 17.971 0 7.475 4.301 14.541 11.162 18.432l5.934 3.328c9.011 5.069 15.626 13.568 18.289 23.552s1.172 20.685-4.101 29.542l-41.011 68.916zM640.826 306.586l-7.076-11.776c-23.501 4.813-48.686 1.178-70.139-10.906-21.299-12.032-37.115-31.232-44.846-53.453h-16.077c-7.731 22.221-23.499 41.421-44.85 53.453-21.453 12.134-46.649 15.718-70.15 10.957l-7.012 11.725c15.77 17.715 24.776 40.755 24.725 64.973-0.102 23.91-9.159 46.694-24.775 64.307l7.063 11.827c23.706-4.813 48.747-1.126 70.2 10.906 21.299 12.032 37.069 31.181 44.8 53.453h16.077c7.731-22.221 23.496-41.421 44.846-53.402 21.453-12.134 46.638-15.719 70.139-10.958l7.076-11.775c-15.718-17.715-24.74-40.653-24.74-64.82 0-24.064 9.073-46.899 24.74-64.512zM564.174 371.2c0-28.262-22.886-51.2-51.199-51.2-28.262 0-51.463 22.938-51.463 51.2s22.688 51.2 50.95 51.2h0.513c28.261 0 51.199-22.938 51.199-51.2zM819.15 742.4h-240.077l-142.335 142.336c-7.219 7.219-16.949 11.264-27.138 11.264h-204.8c-123.802 0-192-68.198-192-192v-512c0-123.802 68.199-192 192-192h614.401c123.802 0 192 68.198 192 192v358.4c-0.051 123.802-68.25 192-192.051 192zM934.35 192c0-80.742-34.458-115.2-115.2-115.2h-614.4c-80.742 0-115.2 34.458-115.2 115.2v512c0 80.742 34.458 115.2 115.2 115.2h188.875l142.338-142.336c7.219-7.219 16.947-11.264 27.136-11.264h256c80.742 0 115.2-34.458 115.2-115.2v-358.4h0.051z" />
<glyph unicode="&#xe91b;" glyph-name="football-shirt" d="M692.224 550.402c0-28.16-23.040-51.2-51.2-51.2s-51.2 23.040-51.2 51.2c0 28.16 22.528 51.2 50.688 51.2h0.512c28.16 0 51.2-23.040 51.2-51.2zM999.936 625.666l-128-128c-14.848-14.848-39.424-14.848-54.272 0l-11.264 11.264v-470.531c0-20.992-17.408-38.4-38.4-38.4h-512.001c-20.992 0-38.4 17.408-38.4 38.4v470.531l-11.262-11.264c-14.848-14.848-39.427-14.848-54.275 0l-128 128c-14.848 14.848-14.848 39.424 0 54.272l174.594 174.592c26.624 26.624 61.952 41.472 99.328 41.472h60.928c31.744 0 59.393-22.528 64.513-52.736 7.168-43.52 44.031-75.264 88.576-75.264s81.408 31.744 88.576 75.264c5.12 30.208 32.768 52.736 64.512 52.736h60.928c37.376 0 73.216-14.848 99.328-41.472l174.592-174.592c14.848-14.848 14.848-39.424 0-54.272zM729.6 358.4h-435.201v-76.8h435.201v76.8zM729.6 76.8v128h-435.201v-128h435.201zM918.528 652.802l-147.456 147.456c-12.288 12.288-28.16 18.944-45.056 18.944h-51.712c-17.408-74.752-83.968-128-161.792-128s-144.386 53.248-161.794 128h-51.709c-16.896 0-33.281-6.656-45.057-18.944l-147.456-147.456 73.728-73.729 49.662 49.665c10.752 10.752 27.649 14.336 41.985 8.192s23.553-19.968 23.553-35.328v-166.4h435.2v166.4c0 15.36 9.216 29.696 23.552 35.328 14.336 6.144 30.72 2.56 41.984-8.192l49.664-49.665 73.728 73.729h-1.024z" />
<glyph unicode="&#xe91c;" glyph-name="grid" d="M881.778 519.111h-739.556c-80.156 0-128 47.844-128 128v170.667c0 80.156 47.844 128 128 128h739.556c80.156 0 128-47.844 128-128v-170.667c0-80.156-47.844-128-128-128zM142.223 860.444c-33.508 0-42.667-9.159-42.667-42.667v-170.667c0-33.508 9.159-42.667 42.667-42.667h739.556c33.508 0 42.667 9.159 42.667 42.667v170.667c0 33.508-9.159 42.667-42.667 42.667h-739.556zM881.778-49.778h-739.556c-80.156 0-128 47.844-128 128v170.667c0 80.156 47.844 128 128 128h739.556c80.156 0 128-47.844 128-128v-170.667c0-80.156-47.844-128-128-128zM142.223 291.556c-33.508 0-42.667-9.159-42.667-42.667v-170.667c0-33.508 9.159-42.667 42.667-42.667h739.556c33.508 0 42.667 9.159 42.667 42.667v170.667c0 33.508-9.159 42.667-42.667 42.667h-739.556z" />
<glyph unicode="&#xe91d;" glyph-name="hand-holding-user" horiz-adv-x="931" d="M870.118 283.090c-30.767 17.408-67.356 17.040-97.797-1.252l-91.69-55.021c-14.383 40.681-53.248 69.911-98.769 69.911h-255.999c-29.836 0-56.972-10.705-78.755-27.881-14.941 16.943-36.538 27.881-60.881 27.881h-93.091c-44.916 0-81.454-36.538-81.454-81.455v-186.182c0-44.916 36.538-81.455 81.454-81.455h93.091c24.297 0 45.94 10.938 60.881 27.881 21.783-17.175 48.92-27.881 78.755-27.881h260.509c50.036 0 99.1 17.222 138.152 48.454l158.394 126.743c23.133 18.525 36.399 46.173 36.399 75.776 0.047 35.421-18.385 66.979-49.199 84.48zM197.908 29.092c0-6.423-5.213-11.636-11.636-11.636h-93.091c-6.423 0-11.636 5.213-11.636 11.636v186.182c0 6.423 5.213 11.636 11.636 11.636h93.091c6.423 0 11.636-5.213 11.636-11.636v-186.182zM839.304 177.344l-158.394-126.748c-26.671-21.364-60.276-33.14-94.487-33.14h-260.515c-32.070 0-58.182 26.112-58.182 58.182v93.091c0 32.070 26.112 58.182 58.182 58.182h256c19.223 0 34.909-15.639 34.909-34.909s-15.686-34.909-34.909-34.909h-162.909c-19.27 0-34.909-15.639-34.909-34.909s15.639-34.909 34.909-34.909h162.909c39.238 0 73.495 21.695 91.462 53.718l134.889 80.933c12.381 7.447 23.366 2.704 27.462 0.33 4.143-2.327 13.824-9.356 13.824-23.692 0-8.285-3.724-16.054-10.24-21.22zM465.777 715.637c64.186 0 116.364 52.224 116.364 116.364s-52.177 116.364-116.364 116.364c-64.186 0-116.364-52.224-116.364-116.364s52.178-116.364 116.364-116.364zM465.777 878.546c25.693 0 46.545-20.899 46.545-46.545s-20.852-46.545-46.545-46.545c-25.693 0-46.545 20.899-46.545 46.545s20.852 46.545 46.545 46.545zM372.499 413.092h186.090c65.583 0 104.774 39.005 104.774 104.307 0 75.543-46.778 151.693-151.273 151.693h-93.091c-104.495 0-151.273-76.196-151.273-151.693 0-65.302 39.19-104.307 104.773-104.307zM418.999 599.274h93.091c70.842 0 81.455-51.294 81.455-81.875 0-26.762-7.82-34.489-34.956-34.489h-186.090c-27.136 0-34.955 7.727-34.955 34.489 0 30.58 10.612 81.875 81.455 81.875z" />
<glyph unicode="&#xe91e;" glyph-name="heart-pulse" d="M512.060-25.575c-5.427 0-10.86 1.121-15.926 3.425-16.742 7.629-410.776 190.377-473.956 515.802-24.422 125.901 0.104 248.718 65.538 328.487 53.043 64.614 129.225 99.028 220.412 99.438 0.461 0 0.923 0 1.281 0 104.038 0 167.477-59.243 202.6-109.675 35.123 50.381 98.56 109.675 202.598 109.675 0.41 0 0.865 0 1.275 0 91.238-0.461 167.475-34.823 220.518-99.438 65.382-79.718 89.856-202.547 65.382-328.55-63.078-325.429-457.165-508.157-473.907-515.786-4.966-2.253-10.388-3.379-15.816-3.379zM309.409 844.827c-0.307 0-0.612 0-0.868 0-68.506-0.307-122.777-24.374-161.381-71.375-51.149-62.31-69.633-161.431-49.563-265.162 48.998-252.675 342.426-416.054 414.412-452.713 71.987 36.71 365.568 200.55 414.464 452.713 20.173 103.782 1.69 202.903-49.357 265.162-38.605 47.002-92.877 71.018-161.536 71.325-0.256 0-0.563 0-0.87 0-122.624 0-165.786-125.496-166.195-126.725-5.274-15.718-19.917-26.263-36.454-26.263-16.539 0-31.183 10.595-36.457 26.263-1.69 5.069-44.799 126.775-166.194 126.775zM595.209 273.125l90.982 136.499h81.869c21.197 0 38.4 17.203 38.4 38.403 0 21.197-17.203 38.4-38.4 38.4h-102.4c-12.851 0-24.832-6.399-31.949-17.1l-58.829-88.277-77.567 232.715c-4.659 13.875-16.797 23.954-31.337 25.9-14.438 2.099-28.877-4.501-37.069-16.738l-90.981-136.5h-81.869c-21.197 0-38.4-17.203-38.4-38.4 0-21.199 17.203-38.403 38.4-38.403h102.4c12.851 0 24.834 6.4 31.95 17.101l58.825 88.276 77.566-232.712c4.659-13.875 16.799-23.956 31.34-25.902 1.69-0.256 3.379-0.364 5.12-0.364 12.749 0 24.73 6.349 31.949 17.101z" />
<glyph unicode="&#xe91f;" glyph-name="laptop-code" d="M950.855 265.141h-12.19v402.288c0 117.906-64.951 182.857-182.857 182.857h-487.617c-117.906 0-182.857-64.951-182.857-182.857v-402.288h-12.19c-20.187 0-36.571-16.384-36.571-36.571v-48.762c0-85.236 48.859-134.095 134.095-134.095h682.664c85.236 0 134.095 48.859 134.095 134.095v48.762c0 20.187-16.384 36.571-36.571 36.571zM158.476 667.429c0 76.898 32.817 109.714 109.714 109.714h487.617c76.898 0 109.714-32.817 109.714-109.714v-402.288h-707.045v402.288zM914.283 179.807c0-45.007-15.94-60.952-60.952-60.952h-682.664c-45.007 0-60.952 15.945-60.952 60.952v12.19h804.569v-12.19zM440.321 592.822l-71.679-71.679 71.679-71.679c14.287-14.287 14.287-37.451 0-51.738-7.119-7.121-16.483-10.725-25.845-10.725s-18.726 3.555-25.845 10.725l-97.524 97.524c-14.287 14.287-14.287 37.451 0 51.738l97.524 97.524c14.287 14.287 37.451 14.287 51.738 0s14.239-37.403-0.048-51.691zM732.894 546.988c14.287-14.287 14.287-37.451 0-51.738l-97.524-97.524c-7.119-7.121-16.482-10.725-25.849-10.725-9.362 0-18.725 3.555-25.844 10.725-14.287 14.287-14.287 37.451 0 51.738l71.68 71.679-71.68 71.679c-14.287 14.287-14.287 37.451 0 51.738s37.454 14.287 51.741 0l97.475-97.571z" />
<glyph unicode="&#xe920;" glyph-name="magicoon" d="M1006.123 472.393c-6.656 15.872-18.944 27.647-38.4 35.839l-132.613 37.889c-107.52 30.208-193.536 115.712-223.744 223.232l-37.888 132.096c-6.144 20.992-22.016 36.864-43.008 43.008-16.383 4.608-33.278 2.56-47.614-5.632-14.848-8.192-25.089-21.504-29.697-37.376l-37.887-132.096c-30.208-107.52-116.224-193.024-224.256-223.232l-132.606-37.889c-20.992-5.632-37.377-22.527-43.009-43.007-9.216-33.281 9.729-68.097 43.009-77.313l132.606-37.888c107.52-30.208 193.535-115.712 223.743-223.232l37.891-132.096c7.68-26.624 32.255-45.568 59.903-45.568 27.645 0 52.221 18.432 60.413 45.568l37.888 132.608c30.208 107.52 116.224 193.024 224.256 223.744l136.192 38.912c15.872 6.144 28.677 18.944 34.821 34.816 6.656 15.872 6.144 33.281 0 48.641v-1.024zM814.123 423.752c-133.12-37.376-239.109-143.36-276.997-276.48l-24.061-84.992-24.579 84.992c-37.888 133.12-143.87 239.104-276.99 276.48l-84.994 24.064 84.994 24.065c133.12 37.376 239.102 143.359 276.99 276.479l24.579 84.993 24.061-84.993c37.888-133.12 143.877-239.103 276.997-276.479l84.987-24.065-84.987-24.064zM327.209 128.328c1.536-4.096-0.001-8.192-4.097-9.728l-39.934-11.264c-36.352-10.24-65.026-38.4-75.266-74.752l-11.262-39.936c0 0-2.562-4.096-5.122-5.12-4.096-1.024-8.192 1.024-9.216 5.12l-11.262 39.936c-10.24 36.352-38.914 64.512-75.266 74.752l-39.934 11.264c0 0-4.098 2.56-5.122 5.12-1.024 4.096 1.026 7.68 5.122 9.216l39.934 11.264c36.352 10.24 65.026 38.4 75.266 74.752l11.262 39.936c0 0 2.559 4.096 5.119 5.12 4.096 1.024 8.195-1.024 9.219-5.12l11.262-39.936c10.24-36.352 38.914-64.512 75.266-74.752l39.934-11.264c0 0 3.073-2.048 4.097-4.096v-0.512zM792.102 812.36c0 0-2.56 1.536-3.072 3.072-0.512 2.56 0.512 5.121 3.072 6.145l26.624 7.68c24.064 6.656 43.008 25.6 50.176 49.664l7.68 26.624c0 0 1.536 2.56 3.072 3.072 2.56 0.512 5.12-0.512 6.144-3.072l7.68-26.624c6.656-24.064 25.6-43.008 50.176-49.664l26.624-7.68c0 0 2.048-1.536 2.56-2.56 1.024-2.56 0-5.633-2.56-6.657l-26.624-7.679c-24.064-6.656-43.008-25.6-50.176-49.664l-7.68-26.624c0 0-1.536-2.56-3.072-3.072-2.56-0.512-5.12 0.511-6.144 3.072l-7.68 26.624c-6.656 24.064-25.6 43.008-50.176 49.664l-26.624 7.679z" />
<glyph unicode="&#xe921;" glyph-name="newspaper" d="M562.125 482.908h-146.795c-48.035 0-77.875-29.836-77.875-77.871v-100.259c0-48.035 29.84-77.871 77.875-77.871h146.795c48.035 0 77.875 29.836 77.875 77.871v100.259c0 48.035-29.84 77.871-77.875 77.871zM570.182 304.779c0-4.329-0.559-6.656-0.419-7.215-0.977-0.326-3.309-0.884-7.638-0.884h-146.795c-3.817 0-6.107 0.419-6.898 0.419-0.14 0-0.226 0-0.273 0-0.326 1.024-0.886 3.351-0.886 7.68v100.259c0 4.329 0.56 6.656 0.42 7.214 0.977 0.326 3.308 0.885 7.637 0.885h146.795c4.468 0 6.8-0.512 7.173-0.419 0.326-1.024 0.884-3.351 0.884-7.68v-100.259zM872.727 424.726c0-19.27-15.639-34.909-34.909-34.909h-93.091c-19.27 0-34.909 15.639-34.909 34.909s15.639 34.909 34.909 34.909h93.091c19.27 0 34.909-15.639 34.909-34.909zM872.727 285.090c0-19.27-15.639-34.909-34.909-34.909h-93.091c-19.27 0-34.909 15.639-34.909 34.909s15.639 34.909 34.909 34.909h93.091c19.27 0 34.909-15.639 34.909-34.909zM872.727 610.908c0-19.27-15.639-34.909-34.909-34.909h-465.455c-19.27 0-34.909 15.639-34.909 34.909s15.639 34.909 34.909 34.909h465.455c19.27 0 34.909-15.639 34.909-34.909zM837.818 831.999h-465.455c-112.547 0-174.545-61.999-174.545-174.545v-11.636h-58.182c-70.609 0-128-57.437-128-128v-325.818c0-70.563 57.391-128 128-128h698.182c112.547 0 174.545 61.999 174.545 174.545v418.909c0 112.547-61.999 174.545-174.545 174.545zM197.818 191.999c0-32.070-26.112-58.182-58.182-58.182s-58.182 26.112-58.182 58.182v325.818c0 32.070 26.112 58.182 58.182 58.182h58.182v-384zM942.545 238.544c0-73.402-31.325-104.727-104.727-104.727h-584.193c8.937 17.455 14.012 37.236 14.012 58.182v465.455c0 73.402 31.325 104.727 104.727 104.727h465.455c73.402 0 104.727-31.325 104.727-104.727v-418.909z" />
<glyph unicode="&#xe922;" glyph-name="note-list" d="M768 947.2h-512c-123.802 0-192-68.198-192-192v-614.4c0-123.802 68.198-192 192-192h512c123.802 0 192 68.198 192 192v614.4c0 123.802-68.198 192-192 192zM883.2 140.8c0-80.742-34.458-115.2-115.2-115.2h-512c-80.742 0-115.2 34.458-115.2 115.2v614.4c0 80.742 34.458 115.2 115.2 115.2h512c80.742 0 115.2-34.458 115.2-115.2v-614.4zM345.6 652.8c0-21.197-17.203-38.4-38.4-38.4s-38.4 17.203-38.4 38.4c0 21.197 17.203 38.4 38.4 38.4s38.4-17.203 38.4-38.4zM345.6 448c0-21.197-17.203-38.4-38.4-38.4s-38.4 17.203-38.4 38.4c0 21.197 17.203 38.4 38.4 38.4s38.4-17.203 38.4-38.4zM345.6 243.2c0-21.197-17.203-38.4-38.4-38.4s-38.4 17.203-38.4 38.4c0 21.197 17.203 38.4 38.4 38.4s38.4-17.203 38.4-38.4zM755.2 652.8c0-21.197-17.203-38.4-38.4-38.4h-256c-21.197 0-38.4 17.203-38.4 38.4s17.203 38.4 38.4 38.4h256c21.197 0 38.4-17.203 38.4-38.4zM755.2 448c0-21.197-17.203-38.4-38.4-38.4h-256c-21.197 0-38.4 17.203-38.4 38.4s17.203 38.4 38.4 38.4h256c21.197 0 38.4-17.203 38.4-38.4zM755.2 243.2c0-21.197-17.203-38.4-38.4-38.4h-256c-21.197 0-38.4 17.203-38.4 38.4s17.203 38.4 38.4 38.4h256c21.197 0 38.4-17.203 38.4-38.4z" />
<glyph unicode="&#xe923;" glyph-name="note-text" d="M768-51.2h-512c-123.802 0-192 68.198-192 192v614.4c0 123.802 68.198 192 192 192h512c123.802 0 192-68.198 192-192v-614.4c0-123.802-68.198-192-192-192zM256 870.4c-80.742 0-115.2-34.458-115.2-115.2v-614.4c0-80.742 34.458-115.2 115.2-115.2h512c80.742 0 115.2 34.458 115.2 115.2v614.4c0 80.742-34.458 115.2-115.2 115.2h-512zM755.2 448c0 21.197-17.203 38.4-38.4 38.4h-409.6c-21.197 0-38.4-17.203-38.4-38.4s17.203-38.4 38.4-38.4h409.6c21.197 0 38.4 17.203 38.4 38.4zM601.6 243.2c0 21.197-17.203 38.4-38.4 38.4h-256c-21.197 0-38.4-17.203-38.4-38.4s17.203-38.4 38.4-38.4h256c21.197 0 38.4 17.203 38.4 38.4zM755.2 652.8c0 21.197-17.203 38.4-38.4 38.4h-409.6c-21.197 0-38.4-17.203-38.4-38.4s17.203-38.4 38.4-38.4h409.6c21.197 0 38.4 17.203 38.4 38.4z" />
<glyph unicode="&#xe924;" glyph-name="papers-text" d="M853.578 889.922l-305.58 53.898c-60.137 10.566-109.706 2.607-147.408-23.784s-62.139-70.236-72.704-130.372l-5.023-28.579-152.625-26.858c-120.739-21.457-175.423-99.745-153.966-220.437l71.864-407.413c10.426-60.137 34.721-103.983 72.329-130.374 26.903-18.851 59.857-28.346 98.443-28.346 15.453 0 31.879 1.536 49.148 4.608l305.85 53.853c86.9 15.732 126.050 57.716 143.458 98.164 2.234-0.047 4.799-0.652 6.986-0.652 93.091 0 153.321 55.017 171.66 158.673l71.82 407.458c21.178 120.692-33.513 198.891-154.252 220.162zM601.623 74.823l-305.714-53.811c-41.379-7.261-73.396-3.258-95.319 12.148-21.876 15.36-36.537 43.985-43.659 85.271l-71.921 407.599c-14.708 83.037 14.431 124.739 97.375 139.494l127.534 22.437-53.898-305.758c-21.271-120.739 33.467-198.935 154.159-220.207l272.296-47.988c-12.94-15.313-36.357-31.088-80.854-39.187zM939.035 681.863l-71.82-407.458c-14.662-83.037-56.283-112.221-139.366-97.559l-305.566 53.9c-82.991 14.615-112.172 56.273-97.556 139.311l71.863 407.458c7.261 41.239 22.111 69.958 44.034 85.318 14.941 10.426 34.493 15.688 58.51 15.688 11.264 0 23.543-1.164 36.762-3.491l305.58-53.901c82.991-14.569 112.175-56.227 97.559-139.264zM819.032 492.936c-2.932-16.943-17.678-28.858-34.295-28.858-2.001 0-4.054 0.14-6.102 0.512l-305.566 53.898c-18.992 3.351-31.706 21.458-28.308 40.449 3.305 18.991 21.605 31.652 40.41 28.301l305.566-53.901c18.944-3.305 31.646-21.363 28.295-40.401zM851.623 644.766c-2.932-16.943-17.687-28.858-34.304-28.858-2.001 0-4.054 0.139-6.102 0.512l-305.571 53.901c-18.991 3.351-31.693 21.458-28.295 40.448 3.305 18.944 21.592 31.696 40.397 28.298l305.571-53.901c18.991-3.351 31.656-21.41 28.304-40.401zM677.399 359.769c-2.932-16.943-17.692-28.858-34.309-28.858-2.001 0-4.045 0.14-6.093 0.512l-191.021 33.699c-18.991 3.351-31.693 21.457-28.295 40.448 3.305 18.944 21.5 31.697 40.398 28.3l191.025-33.699c18.991-3.305 31.646-21.411 28.295-40.401z" />
<glyph unicode="&#xe925;" glyph-name="phone" d="M733.996-27.415c-22.382 0-44.905 3.023-67.14 9.118-300.619 82.505-538.626 320.366-621.18 620.789-18.773 68.315-8.487 139.508 29.060 200.363 37.693 61.147 99.672 104.302 170.036 118.345 46.811 9.362 93.086-11.508 116.833-51.542l76.214-128.73c37.010-62.513 18.621-143.019-41.893-183.296l-55.143-36.67c51.541-105.814 138.233-192.757 243.607-244.249l37.166 55.442c40.521 60.416 121.022 78.507 183.486 41.301l128.883-76.849c39.887-23.796 60.509-70.363 51.439-115.81-14.043-70.363-57.198-132.34-118.296-170.033-41.058-25.259-86.747-38.181-133.071-38.181zM267.151 850.399c-2.389 0-4.826-0.245-7.167-0.732-51.395-10.289-95.915-41.252-122.929-85.186-26.77-43.398-34.134-94.062-20.774-142.58 75.727-275.653 294.131-493.96 569.927-569.638 48.567-13.312 99.079-5.9 142.429 20.821 43.886 27.063 74.908 71.631 85.002 122.149 3.023 15.165-3.852 30.72-17.213 38.668l-128.834 76.849c-29.013 17.262-66.462 8.826-85.285-19.212l-54.37-81.189c-9.752-14.531-28.57-20.090-44.466-13.361-144.482 60.416-262.047 178.225-322.512 323.245-6.729 16.189-1.080 34.816 13.5 44.519l81 53.883c28.087 18.676 36.618 56.076 19.405 85.089l-76.214 128.683c-6.68 11.313-18.773 17.993-31.5 17.993z" />
<glyph unicode="&#xe926;" glyph-name="phone-call" d="M745.087-51.178c-23.501 0-47.15 3.174-70.497 9.574-315.599 86.63-565.558 336.384-652.239 651.825-19.712 71.731-8.912 146.484 30.512 210.381 39.578 64.205 104.656 109.466 178.538 124.262 48.794 9.779 97.74-12.032 122.675-54.119l80.025-135.115c38.861-65.638 19.552-150.221-43.987-192.461l-57.9-38.503c54.118-111.154 145.144-202.392 255.788-256.459l39.025 58.214c42.445 63.437 127.073 82.432 192.66 43.366l135.327-80.691c41.882-24.986 63.585-73.83 54.011-121.6-14.746-73.882-60.058-138.957-124.211-178.534-43.11-26.573-91.085-40.141-139.725-40.141zM254.9 870.523c-2.509 0-5.067-0.257-7.525-0.769-53.965-10.803-100.659-43.314-129.075-89.445-28.109-45.568-35.841-98.765-21.812-149.709 79.514-289.483 308.838-518.654 598.423-598.117 50.944-13.978 104.084-6.195 149.55 21.862 46.080 28.416 78.653 75.213 89.252 128.256 3.174 15.923-4.050 32.256-18.028 40.55l-135.322 80.691c-30.618 18.176-69.888 9.267-89.549-20.173l-57.088-85.248c-10.24-15.258-29.998-21.094-46.689-14.029-151.706 63.386-275.098 187.136-338.637 339.403-7.066 16.998-1.082 36.557 14.175 46.746l85.050 56.577c29.491 19.61 38.449 58.879 20.375 89.343l-80.025 135.117c-7.014 11.93-19.712 18.943-33.075 18.943zM658.912 305.072v0zM806.425 550.523c0 105.882-86.17 192-192 192-21.197 0-38.4-17.203-38.4-38.4s17.203-38.4 38.4-38.4c63.488 0 115.2-51.661 115.2-115.2 0-21.197 17.203-38.4 38.4-38.4s38.4 17.203 38.4 38.4zM960.025 550.523c0 190.566-155.034 345.6-345.6 345.6-21.197 0-38.4-17.203-38.4-38.4s17.203-38.4 38.4-38.4c148.224 0 268.8-120.576 268.8-268.8 0-21.197 17.203-38.4 38.4-38.4s38.4 17.203 38.4 38.4z" />
<glyph unicode="&#xe927;" glyph-name="pills" d="M987.452 644.143c0 74.606-29.062 144.728-81.822 197.488s-122.88 81.821-197.486 81.821c-74.606 0-144.774-29.061-197.486-81.821l-392.29-392.288c-52.76-52.76-81.821-122.88-81.821-197.486s29.061-144.73 81.821-197.491c52.712-52.76 122.882-81.818 197.488-81.818s144.771 29.057 197.483 81.818l195.584 195.584c0.488 0.439 1.068 0.585 1.556 1.024s0.585 1.073 1.024 1.56l194.126 194.121c52.76 52.759 81.822 122.93 81.822 197.487zM461.654 106.108c-38.961-38.912-90.698-60.372-145.75-60.372s-106.79 21.46-145.75 60.372c-38.961 38.961-60.369 90.697-60.369 145.749s21.408 106.789 60.369 145.749l171.006 171.001 291.549-291.486-171.055-171.013zM684.397 328.848l-291.546 291.498 169.544 169.548c38.961 38.912 90.697 60.369 145.749 60.369s106.789-21.457 145.749-60.369c38.961-38.961 60.367-90.698 60.367-145.75s-21.406-106.789-60.367-145.75l-169.496-169.546zM323.023 434.954c14.287-14.287 14.287-37.454 0-51.741l-37.060-37.059c-32.183-32.232-48.080-76.741-43.643-122.188 1.999-20.139-12.725-37.99-32.815-39.99-1.17-0.098-2.437-0.141-3.607-0.141-18.578 0-34.475 14.092-36.328 32.963-6.68 67.34 16.917 133.359 64.655 181.097l37.060 37.059c14.287 14.287 37.451 14.287 51.738 0z" />
<glyph unicode="&#xe928;" glyph-name="shopping-cart" d="M427.641 21.358c0-33.646-27.307-60.952-60.952-60.952-33.597 0-61.197 27.307-61.197 60.952s27.063 60.952 60.709 60.952h0.488c33.646 0 60.952-27.307 60.952-60.952zM756.783 82.311h-0.488c-33.646 0-60.709-27.307-60.709-60.952s27.55-60.952 61.196-60.952c33.646 0 60.952 27.307 60.952 60.952s-27.307 60.952-60.952 60.952zM985.233 631.271l-49.445-300.664c-12.824-70.51-44.715-150.772-179.98-150.772h-403.065c-66.267 0-123.37 49.493-132.732 115.127l-73.631 515.168c-4.291 29.842-30.181 52.322-60.316 52.322h-12.922c-20.187 0-36.571 16.384-36.571 36.571s16.384 36.571 36.571 36.571h12.97c66.267 0 123.37-49.493 132.732-115.126l4.482-31.159h630.006c39.887 0 77.439-17.554 102.99-48.176 25.502-30.574 36.079-70.656 28.911-109.861zM863.718 343.041l5.213 31.842h-308.17c-20.187 0-36.571 16.384-36.571 36.571s16.384 36.571 36.571 36.571h320.219l32.188 195.729c3.365 18.432-1.419 36.668-13.073 50.566s-28.672 21.895-46.811 21.895h-619.57l58.708-410.916c4.291-29.842 30.187-52.322 60.321-52.322h403.065c77.873 0 96.841 29.062 107.91 90.063z" />
<glyph unicode="&#xe929;" glyph-name="tool" d="M964.104 726.836c-4.584 11.362-14.58 19.652-26.575 22.138-12.044 2.487-24.478-1.268-33.109-9.899l-106.398-105.863c-13.995-13.946-36.766-13.945-50.81 0.049l-49.981 49.98c-13.995 13.995-14.043 36.815-0.049 50.859l105.862 106.35c8.631 8.68 12.337 21.114 9.899 33.11s-10.776 21.991-22.138 26.575c-93.72 37.888-198.12 29.209-286.525-23.698-40.082-24.040-74.021-57.051-98.060-95.378 0 0-0.049-0.049-0.049-0.098l-3.998-6.582c-39.595-65.487-54.905-138.972-44.227-212.652 1.512-10.435-2.341-21.454-10.289-29.451l-259.56-259.56c-33.207-33.207-51.493-77.336-51.493-124.343s18.286-91.087 51.493-124.294c33.207-33.207 77.336-51.493 124.343-51.493 46.958 0 91.087 18.286 124.294 51.493l259.56 259.56c7.948 7.948 19.017 11.8 29.452 10.289 73.533-10.679 146.871 4.437 212.066 43.691 42.082 25.307 77.434 60.66 102.059 102.059 53.394 88.454 62.269 193.097 24.235 287.159zM877.113 477.321c-18.578-31.256-45.202-57.88-77.044-76.946-63.829-38.473-124.343-39.692-163.791-33.987-33.353 4.876-67.486-6.729-91.672-30.964l-259.56-259.56c-38.863-38.814-106.447-38.766-145.213 0-19.358 19.407-30.086 45.202-30.086 72.606s10.679 53.199 30.086 72.606l259.608 259.559c24.186 24.235 35.743 58.466 30.916 91.624-8.192 56.661 3.706 113.469 34.621 164.621l3.268 5.364c17.944 28.574 43.446 53.297 73.63 71.436 62.123 37.205 120.442 40.862 165.205 34.036l-61.781-62.026c-42.325-42.569-42.277-111.714 0.195-154.186l49.981-49.932c42.472-42.52 111.616-42.569 154.185-0.195l61.976 61.683c8.241-56.32-3.511-114.394-34.523-165.741zM220.436 204.303h-0.488c-26.917 0-48.518-21.845-48.518-48.762s22.089-48.762 49.006-48.762c26.917 0 48.762 21.845 48.762 48.762s-21.845 48.762-48.762 48.762z" />
<glyph unicode="&#xe92a;" glyph-name="truck" d="M984.872 422.892c0 0.244 0.141 0.434 0.141 0.678 0 0.683-0.336 1.219-0.385 1.902-0.536 3.316-1.268 6.632-1.999 9.947-0.341 0.975-0.439 1.999-0.829 2.926-1.999 8.486-4.052 16.973-7.27 25.311l-50.61 125.024c-22.382 56.71-45.548 115.321-169.599 115.321h-108.247v85.333c0 60.514-49.25 109.714-109.714 109.714h-390.097c-60.465 0-109.714-49.201-109.714-109.714v-536.382c0-56.808 43.542-103.078 98.887-108.637-0.439-4.437-1.363-8.733-1.363-13.268 0-73.923 60.123-134.095 134.095-134.095s134.095 60.172 134.095 134.095c0 4.194-0.879 8.143-1.22 12.19h221.918c-0.39-4.047-1.224-7.997-1.224-12.19 0-73.923 60.123-134.095 134.095-134.095 73.977 0 134.095 60.172 134.095 134.095 0 4.535-0.873 8.88-1.36 13.268 55.345 5.559 98.884 51.829 98.884 108.637v142.39c0 9.216-1.214 18.383-2.58 27.55zM754.37 630.81c74.264 0 81.193-17.409 101.673-69.292l41.004-101.375h-250.929v170.667h108.251zM268.216 70.046c-33.597 0-60.952 27.355-60.952 60.952s27.355 60.952 60.952 60.952c33.597 0 60.952-27.355 60.952-60.952s-27.355-60.952-60.952-60.952zM755.833 70.046c-33.597 0-60.952 27.355-60.952 60.952s27.355 60.952 60.952 60.952c33.602 0 60.952-27.355 60.952-60.952s-27.351-60.952-60.952-60.952zM877.738 216.332h-19.305c-24.625 29.55-61.201 48.762-102.6 48.762-41.394 0-77.97-19.212-102.595-48.762h-282.474c-24.625 29.55-61.197 48.762-102.596 48.762s-77.97-19.212-102.595-48.762h-19.31c-20.139 0-36.571 16.384-36.571 36.571v134.095h304.762c20.187 0 36.571 16.384 36.571 36.571 0 20.19-16.384 36.574-36.571 36.574h-304.762v329.143c0 20.187 16.433 36.571 36.571 36.571h390.097c20.139 0 36.571-16.384 36.571-36.571v-402.288h341.333v-134.095c0.049-20.187-16.384-36.571-36.528-36.571z" />
<glyph unicode="&#xe92b;" glyph-name="user-search" d="M396.063 529.477c109.103 0 197.819 88.762 197.819 197.818s-88.716 197.818-197.819 197.818c-109.103 0-197.818-88.762-197.818-197.818s88.716-197.818 197.818-197.818zM396.063 855.295c70.61 0 128.001-57.391 128.001-128s-57.391-128-128.001-128c-70.609 0-128 57.391-128 128s57.391 128 128 128zM529.738 387.046c-11.729 1.908-25.135 2.793-41.007 2.793h-186.179c-183.529 0-197.818-152.157-197.818-198.749 0-72.751 31.325-103.796 104.727-103.796h232.727c19.27 0 34.907-15.639 34.907-34.909s-15.637-34.909-34.907-34.909h-232.727c-112.547 0-174.545 61.673-174.545 173.615 0 123.904 70.097 268.567 267.636 268.567h186.179c19.596 0 36.636-1.206 52.089-3.719 19.037-3.025 32.019-20.945 28.9-39.983-3.025-19.037-21.411-31.935-39.983-28.909zM978.86 30.512l-85.229 85.22c20.992 30.534 33.42 67.449 33.42 107.292 0 104.774-85.267 190.045-190.087 190.045-104.774 0-190.050-85.271-190.050-190.045s85.276-190.045 190.050-190.045c39.796 0 76.702 12.428 107.283 33.42l85.225-85.276c6.796-6.796 15.737-10.235 24.674-10.235s17.873 3.393 24.669 10.235c13.684 13.684 13.684 35.752 0.047 49.389zM616.731 223.066c0 66.281 53.951 120.227 120.232 120.227 66.327 0 120.269-53.946 120.269-120.227s-53.942-120.227-120.269-120.227c-66.281-0.047-120.232 53.9-120.232 120.227z" />
<glyph unicode="&#xe92c;" glyph-name="users-group-alt" d="M701.905 522.983c5.399 18.479 24.716 29.093 43.334 23.693 4.236-1.257 9.216-1.864 15.313-1.864 40.541 0 73.542 33.191 73.542 74.011 0 33.373-22.528 62.554-54.877 70.932-18.665 4.841-29.882 23.926-24.995 42.591 4.794 18.665 23.738 29.741 42.543 25.040 63.069-16.384 107.148-73.353 107.148-138.517 0-79.313-64.326-143.824-143.36-143.824-12.8 0-24.25 1.535-34.956 4.654-18.525 5.399-29.091 24.759-23.692 43.284zM833.024 451.21c-0.465 0-0.884 0-1.257 0-18.711 0-34.211-14.802-34.863-33.653-0.745-19.272 14.336-35.423 33.606-36.122 103.936-3.77 112.035-92.854 112.035-120.083v-92.625c0-19.27 15.639-34.909 34.909-34.909s34.909 15.639 34.909 34.909v92.625c0 84.62-46.964 185.11-179.34 189.858zM263.914 474.995c12.8 0 24.249 1.54 34.955 4.659 18.479 5.446 29.092 24.805 23.693 43.33-5.399 18.479-24.764 29.093-43.335 23.693-4.236-1.257-9.215-1.864-15.313-1.864-40.541 0-73.545 33.191-73.545 74.011 0 33.652 22.713 63.020 55.295 71.398 18.618 4.794 29.932 23.829 25.091 42.494-4.841 18.711-23.928 30.025-42.546 25.091-63.348-16.337-107.614-73.494-107.614-138.983-0.047-79.313 64.284-143.829 143.318-143.829zM226.165 417.745c-0.791 19.27-16.619 34.49-36.261 33.466-131.584-5.306-178.267-105.61-178.267-189.858v-92.625c0-19.27 15.639-34.909 34.909-34.909s34.909 15.639 34.909 34.909v92.625c0 34.769 10.845 116.080 111.29 120.083 19.27 0.791 34.212 17.040 33.421 36.309zM337.83 680.727c0 96.256 78.336 174.545 174.547 174.545 96.209 0 174.545-78.289 174.545-174.545s-78.336-174.545-174.545-174.545c-96.211 0-174.547 78.289-174.547 174.545zM407.648 680.727c0-57.763 47.011-104.727 104.729-104.727 57.716 0 104.727 46.964 104.727 104.727s-47.011 104.727-104.727 104.727c-57.718 0-104.729-46.964-104.729-104.727zM594.711 441.528h-165.467c-178.502 0-241.807-130.651-241.807-242.547v-123.345c0-19.27 15.639-34.909 34.909-34.909s34.909 15.639 34.909 34.909v123.345c0 40.541 12.431 172.73 171.989 172.73h165.467c159.604 0 171.985-132.189 171.985-172.73v-123.345c0-19.27 15.639-34.909 34.909-34.909s34.909 15.639 34.909 34.909v123.345c0.047 111.895-63.302 242.547-241.804 242.547z" />
<glyph unicode="&#xe92d;" glyph-name="search" d="M1007.175 33.581l-193.36 192.791c62.387 79.477 96.237 177.625 96.111 278.664 0 89.983-26.683 177.946-76.673 252.765-49.995 74.818-121.049 133.132-204.182 167.567s-174.613 43.445-262.866 25.89c-88.255-17.555-169.322-60.886-232.949-124.514s-106.959-144.695-124.513-232.949c-17.555-88.255-8.545-179.733 25.89-262.868 34.435-83.133 92.749-154.187 167.568-204.182 74.818-49.989 162.78-76.673 252.764-76.673 101.039-0.126 199.187 33.725 278.664 96.111l192.791-193.36c5.289-5.329 11.579-9.56 18.512-12.449 6.926-2.889 14.359-4.374 21.867-4.374s14.94 1.485 21.872 4.374c6.933 2.889 13.223 7.121 18.505 12.449 5.334 5.283 9.566 11.574 12.449 18.505 2.889 6.933 4.374 14.366 4.374 21.872s-1.485 14.94-4.374 21.872c-2.883 6.926-7.114 13.217-12.449 18.505zM113.741 505.035c0 67.487 20.012 133.459 57.506 189.573s90.785 99.85 153.136 125.676c62.349 25.826 130.958 32.584 197.15 19.418 66.194-13.167 126.994-45.664 174.714-93.385s80.216-108.52 93.381-174.711c13.171-66.191 6.409-134.799-19.416-197.149-25.825-62.353-69.564-115.641-125.673-153.135-56.114-37.495-122.088-57.507-189.576-57.507-90.498 0-177.29 35.948-241.281 99.938-63.991 63.997-99.941 150.785-99.941 241.283z" />
<glyph unicode="&#xe92e;" glyph-name="close" d="M615.42 447.994l387.133 387.133c28.595 28.524 28.595 74.891 0 103.416-28.604 28.597-74.823 28.597-103.426 0l-387.128-387.129-387.131 387.129c-28.597 28.597-74.823 28.597-103.42 0-28.597-28.524-28.597-74.891 0-103.416l387.131-387.133-387.131-387.135c-28.597-28.524-28.597-74.893 0-103.417 14.263-14.263 32.986-21.433 51.711-21.433s37.448 7.171 51.71 21.433l387.131 387.133 387.128-387.133c14.263-14.263 32.992-21.433 51.713-21.433s37.451 7.171 51.713 21.433c28.595 28.524 28.595 74.893 0 103.417l-387.133 387.135z" />
</font>
</defs>
</svg>
