<svg width="16" height="16" viewBox="0 0 16 16" fill="none" xmlns="http://www.w3.org/2000/svg">
<path d="M7.5354 0.434814C3.40058 0.434814 0.0419922 3.7934 0.0419922 7.92822C0.0419922 12.063 3.40058 15.4216 7.5354 15.4216C11.6702 15.4216 15.0288 12.063 15.0288 7.92822C15.0288 3.7934 11.6702 0.434814 7.5354 0.434814ZM9.24926 14.0305C9.24926 13.7154 9.24926 13.0545 9.24926 12.2629C9.24926 11.6173 9.02639 11.1946 8.78046 10.9794C10.3176 10.8103 11.9392 10.2262 11.9392 7.567C11.9392 6.81382 11.6702 6.19897 11.2245 5.71478C11.3013 5.53801 11.5395 4.83096 11.163 3.87795C11.163 3.87795 10.5789 3.69349 9.25696 4.5927C8.7036 4.43899 8.11181 4.36213 7.52771 4.35445C6.93592 4.36213 6.34413 4.43899 5.79846 4.5927C4.47655 3.69349 3.89246 3.87795 3.89246 3.87795C3.51587 4.83096 3.7541 5.53801 3.82327 5.71478C3.38519 6.19897 3.11621 6.81382 3.11621 7.567C3.11621 10.2185 4.73016 10.8103 6.26727 10.9871C6.06744 11.1562 5.89072 11.4636 5.82923 11.9093C5.42958 12.0861 4.43042 12.3935 3.81558 11.3329C3.81558 11.3329 3.44671 10.672 2.75501 10.6259C2.75501 10.6259 2.07864 10.6182 2.70885 11.0409C2.70885 11.0409 3.1623 11.2561 3.47741 12.0554C3.47741 12.0554 3.87708 13.2927 5.80615 12.87C5.80615 13.3465 5.80615 13.7846 5.80615 14.0305C3.13927 13.2774 1.17944 10.8334 1.17944 7.92822C1.17944 4.4313 4.02309 1.58765 7.52001 1.58765C11.0169 1.58765 13.8606 4.4313 13.8606 7.92822C13.8606 10.8334 11.9008 13.2774 9.23392 14.0305H9.24926Z" fill="#411D66"/>
</svg>
