<svg width="12" height="11" viewBox="0 0 12 11" fill="none" xmlns="http://www.w3.org/2000/svg">
<path d="M0.953125 10.9734H3.14878V3.90869H0.953125V10.9734Z" fill="#411D66"/>
<path d="M0.765625 1.6592C0.765625 2.35404 1.34343 2.93314 2.03679 2.93314C2.75327 2.93314 3.30797 2.37724 3.30797 1.6592C3.30797 0.964314 2.73017 0.385254 2.03679 0.385254C1.34343 0.385254 0.765625 0.964314 0.765625 1.6592Z" fill="#411D66"/>
<path d="M9.16123 10.9714H11.3568V7.10323C11.3568 5.20393 10.9408 3.74463 8.72202 3.74463C7.65892 3.74463 6.94242 4.32373 6.64192 4.87963H6.61882V3.90673H4.51562V10.9714H6.71132V7.47383C6.71132 6.57053 6.89622 5.66713 8.02872 5.66713C9.13812 5.66713 9.16123 6.73263 9.16123 7.54333V10.9714Z" fill="#411D66"/>
</svg>
