<svg width="13" height="8" viewBox="0 0 13 8" fill="none" xmlns="http://www.w3.org/2000/svg">
<path d="M6.90381 7.66406C6.79831 7.66406 6.70162 7.64597 6.61371 7.6098C6.52578 7.57362 6.43788 7.51031 6.34997 7.41987L1.12799 2.04778C0.969746 1.88499 0.890625 1.69507 0.890625 1.47802C0.890625 1.26096 0.969746 1.07104 1.12799 0.908248C1.28623 0.745458 1.47524 0.664062 1.69502 0.664062C1.9148 0.664062 2.10382 0.745458 2.26206 0.908248L6.90381 5.68344L11.5455 0.908248C11.7038 0.745458 11.8884 0.664062 12.0994 0.664062C12.3104 0.664062 12.495 0.745458 12.6532 0.908248C12.8115 1.07104 12.8906 1.26548 12.8906 1.49158C12.8906 1.71768 12.8115 1.91212 12.6532 2.07491L7.45765 7.41987C7.36974 7.51031 7.28184 7.57362 7.19392 7.6098C7.106 7.64597 7.00931 7.66406 6.90381 7.66406Z" fill="white"/>
</svg>
