<svg width="12" height="9" viewBox="0 0 12 9" fill="none" xmlns="http://www.w3.org/2000/svg">
<path d="M10.943 2.77885C10.8044 1.90515 10.3886 1.30023 9.41818 1.16581C7.89338 0.896982 5.53688 0.896973 5.53688 0.896973C5.53688 0.896973 3.18038 0.896982 1.65558 1.16581C0.685277 1.30023 0.200117 1.90515 0.130807 2.77885C-0.00781308 3.65255 -0.0078125 4.92945 -0.0078125 4.92945C-0.0078125 4.92945 -0.00781308 6.20645 0.130807 7.08015C0.269427 7.95385 0.685277 8.55875 1.65558 8.69315C3.18038 8.96205 5.53688 8.96205 5.53688 8.96205C5.53688 8.96205 7.89338 8.96205 9.41818 8.69315C10.3886 8.49155 10.8044 7.95385 10.943 7.08015C11.0816 6.20645 11.0816 4.92945 11.0816 4.92945C11.0816 4.92945 11.0816 3.65255 10.943 2.77885ZM4.15068 6.94575V2.91325L7.61618 4.92945L4.15068 6.94575Z" fill="#411D66"/>
</svg>
