<svg xmlns="http://www.w3.org/2000/svg" width="16" height="16" viewBox="0 0 16 16">
  <g id="review" transform="translate(-325 -3354)">
    <path id="Polygon_1" data-name="Polygon 1" d="M7.239.893a1,1,0,0,1,1.522,0l.585.687a1,1,0,0,0,1.048.309l.858-.257a1,1,0,0,1,1.278.82l.128.918a1,1,0,0,0,.709.822l.878.257a1,1,0,0,1,.629,1.374l-.39.856a1,1,0,0,0,.153,1.068l.612.71a1,1,0,0,1-.215,1.494l-.779.5a1,1,0,0,0-.448.984l.135.927a1,1,0,0,1-.993,1.144l-.9,0a1,1,0,0,0-.916.591l-.374.834a1,1,0,0,1-1.46.428l-.749-.49a1,1,0,0,0-1.094,0l-.749.49a1,1,0,0,1-1.46-.428L4.87,14.1a1,1,0,0,0-.916-.591l-.9,0a1,1,0,0,1-.993-1.144l.135-.927a1,1,0,0,0-.448-.984l-.779-.5A1,1,0,0,1,.751,8.457l.612-.71a1,1,0,0,0,.153-1.068l-.39-.856a1,1,0,0,1,.629-1.374l.878-.257a1,1,0,0,0,.709-.822l.128-.918a1,1,0,0,1,1.278-.82l.858.257A1,1,0,0,0,6.654,1.58Z" transform="translate(325 3354)" fill="#57a4ff"/>
    <path id="Path_6" data-name="Path 6" d="M331.571,3365.244a.648.648,0,0,1-.534-.279l-1.35-1.945,1.068-.741.925,1.334,4.029-3.691.878.958-4.578,4.194A.65.65,0,0,1,331.571,3365.244Z" fill="#fff"/>
  </g>
</svg>
