<svg xmlns="http://www.w3.org/2000/svg" width="20" height="16.238" viewBox="0 0 20 16.238">
  <path id="CMDs_Message-4" data-name="CMDs Message-4" d="M17.945,52.243c.012.176.012.355.012.531A11.585,11.585,0,0,1,6.293,64.438,11.564,11.564,0,0,1,0,62.6a8.247,8.247,0,0,0,.988.051,8.226,8.226,0,0,0,5.09-1.75,4.108,4.108,0,0,1-3.832-2.844,5.04,5.04,0,0,0,.773.063A4.294,4.294,0,0,0,4.1,57.977,4.1,4.1,0,0,1,.812,53.954V53.9a4.1,4.1,0,0,0,1.852.52,4.107,4.107,0,0,1-1.27-5.484,11.652,11.652,0,0,0,8.453,4.3,4.687,4.687,0,0,1-.1-.937,4.1,4.1,0,0,1,7.094-2.8,8.033,8.033,0,0,0,2.6-.988,4.091,4.091,0,0,1-1.8,2.258A8.26,8.26,0,0,0,20,50.13a8.87,8.87,0,0,1-2.055,2.113Z" transform="translate(0 -48.2)" fill="#fff"/>
</svg>
