<svg xmlns="http://www.w3.org/2000/svg" width="20" height="14.061" viewBox="0 0 20 14.061">
  <path id="CMDs_Message-6" data-name="CMDs Message-6" d="M34.483,66.2a2.51,2.51,0,0,0-1.769-1.78C31.154,64,24.9,64,24.9,64s-6.254,0-7.814.421a2.51,2.51,0,0,0-1.769,1.78,28.319,28.319,0,0,0,0,9.689,2.478,2.478,0,0,0,1.769,1.75c1.56.421,7.814.421,7.814.421s6.254,0,7.814-.421a2.478,2.478,0,0,0,1.769-1.75,28.319,28.319,0,0,0,0-9.689ZM22.853,74.018V68.072l5.225,2.973-5.225,2.973Z" transform="translate(-14.9 -64)" fill="#fff"/>
</svg>
